# Blender 5.1.0
# www.blender.org
mtllib room.mtl
o room_lowpoly
v 3.000000 0.000000 3.000000
v -3.000000 -0.000000 -3.000000
v -3.510000 2.000000 -0.700000
v -3.510000 5.000000 -0.700000
v -3.510000 2.000000 2.400000
v -3.510000 5.000000 2.400000
v -3.000000 2.000000 2.400000
v -3.000000 2.000000 -0.700000
v -3.000000 5.000000 2.400000
v -3.000000 5.000000 -0.700000
v -1.800000 2.000000 -3.000000
v -1.800000 5.000000 -3.000000
v -0.200000 2.000000 -3.000000
v -0.200000 5.000000 -3.000000
v -0.200000 1.999999 -3.500000
v -1.800000 4.999999 -3.500000
v -1.800000 1.999999 -3.500000
v -0.200000 4.999999 -3.500000
v -1.660000 4.849999 -3.500000
v -0.370000 4.849999 -3.500000
v -1.660000 2.249999 -3.500000
v -0.360000 2.249999 -3.500000
v -3.510000 4.850000 2.150000
v -3.510000 2.250000 2.150000
v -3.510000 4.850000 -0.450000
v -3.510000 2.250000 -0.450000
v -3.510000 5.000000 0.845000
v -3.510000 4.850000 0.950000
v -3.510000 2.250000 0.950000
v -3.510000 2.000000 0.845000
v -3.510000 4.850000 0.740000
v -3.510000 2.250000 0.740000
v 3.000000 -0.000000 -3.000000
v -3.000000 0.000000 3.000000
v 3.000000 6.000000 -3.000000
v -3.000000 6.000000 -3.000000
v -3.000000 6.000000 3.000000
v 3.000000 -0.600000 3.000000
v -3.600000 6.000000 3.000000
v -3.600000 -0.600001 -3.600000
v 3.000000 -0.600001 -3.600000
v 3.000000 6.000000 -3.600001
v -3.600000 6.000000 -3.600001
v -3.600000 -0.600000 3.000000
vn -0.0000 1.0000 -0.0000
vn -0.0000 -1.0000 -0.0000
vn -1.0000 -0.0000 -0.0000
vn 1.0000 -0.0000 -0.0000
vn -0.0000 -0.0000 -1.0000
vn -0.0000 -0.0000 1.0000
vt 0.750135 0.757915
vt 0.750135 0.500000
vt 0.792566 0.500000
vt 0.792566 0.757915
vt 0.835538 0.500000
vt 0.835538 0.757915
vt 0.793107 0.757915
vt 0.793107 0.500000
vt 0.633117 0.998923
vt 0.500000 0.998923
vt 0.500000 0.957323
vt 0.633117 0.957323
vt 0.633657 0.957323
vt 0.766775 0.957323
vt 0.766775 0.998923
vt 0.633657 0.998923
vt 0.500326 0.956075
vt 0.500326 0.914475
vt 0.749921 0.914475
vt 0.749921 0.956075
vt 0.963620 0.749595
vt 0.922021 0.749595
vt 0.922021 0.500000
vt 0.963620 0.500000
vt 0.878509 0.749595
vt 0.836078 0.749595
vt 0.836078 0.500000
vt 0.878509 0.500000
vt 0.879050 0.500000
vt 0.921481 0.500000
vt 0.921481 0.749595
vt 0.879050 0.749595
vt 0.999190 0.000270
vt 0.832793 0.050189
vt 0.583198 0.050189
vt 0.500000 0.000270
vt 0.583198 0.308104
vt 0.500000 0.499460
vt 0.999190 0.499460
vt 0.832793 0.308104
vt 0.000270 0.000270
vt 0.100108 0.166667
vt 0.100108 0.416261
vt 0.000270 0.499460
vt 0.233225 0.416261
vt 0.499460 0.499460
vt 0.000270 0.999190
vt 0.000270 0.500000
vt 0.499460 0.500000
vt 0.499460 0.999189
vt 0.233225 0.166667
vt 0.499460 0.000270
vt 0.728796 0.878260
vt 0.728796 0.770103
vt 0.749595 0.758455
vt 0.749595 0.891572
vt 0.500000 0.891572
vt 0.500000 0.758455
vt 0.512480 0.770103
vt 0.512480 0.877429
vt 0.728795 0.737115
vt 0.749595 0.757915
vt 0.500000 0.757915
vt 0.512480 0.737115
vt 0.749595 0.500000
vt 0.728795 0.520800
vt 0.512480 0.520800
vt 0.500000 0.500000
vt 0.749595 0.629373
vt 0.728795 0.638109
vt 0.512480 0.638109
vt 0.500000 0.629373
vt 0.512480 0.620637
vt 0.728795 0.620638
vt 0.757832 0.889697
vt 0.768750 0.878780
vt 0.877923 0.878780
vt 0.877923 0.889698
vt 0.768750 0.911879
vt 0.877923 0.911879
vt 0.877923 0.922796
vt 0.757832 0.922796
vt 0.757832 0.889813
vt 0.867005 0.889813
vt 0.877923 0.900730
vt 0.757832 0.900730
vt 0.998962 0.878077
vt 0.878872 0.878077
vt 0.878872 0.757987
vt 0.998962 0.757987
vt 0.768750 0.922911
vt 0.877923 0.922911
vt 0.877923 0.933829
vt 0.757832 0.933829
vt 0.768750 0.945381
vt 0.757832 0.934464
vt 0.877923 0.934464
vt 0.877923 0.945381
vt 0.757832 0.900846
vt 0.867005 0.900846
vt 0.877923 0.911763
vt 0.757832 0.911763
vt 0.757832 0.758575
vt 0.877923 0.758574
vt 0.877923 0.878665
vt 0.757832 0.878665
vt 0.878872 0.999259
vt 0.878872 0.879169
vt 0.998962 0.879169
vt 0.998962 0.999259
s 1
usemtl room_material
f 3/1/1 5/2/1 7/3/1 8/4/1
f 6/5/2 4/6/2 10/7/2 9/8/2
f 16/9/2 18/10/2 14/11/2 12/12/2
f 15/13/1 17/14/1 11/15/1 13/16/1
f 14/17/3 18/18/3 15/19/3 13/20/3
f 11/21/4 17/22/4 16/23/4 12/24/4
f 7/25/5 5/26/5 6/27/5 9/28/5
f 10/29/6 4/30/6 3/31/6 8/32/6
f 34/33/4 7/34/4 9/35/4 37/36/4
f 37/36/4 9/35/4 10/37/4 36/38/4
f 7/34/4 34/33/4 2/39/4 8/40/4
f 10/37/4 8/40/4 2/39/4 36/38/4
f 2/41/6 11/42/6 12/43/6 36/44/6
f 36/44/6 12/43/6 14/45/6 35/46/6
f 33/47/1 2/48/1 34/49/1 1/50/1
f 13/51/6 11/42/6 2/41/6 33/52/6
f 35/46/6 14/45/6 13/51/6 33/52/6
f 22/53/6 21/54/6 17/55/6 15/56/6
f 18/57/6 16/58/6 19/59/6 20/60/6
f 18/57/6 20/60/6 22/53/6 15/56/6
f 19/59/6 16/58/6 17/55/6 21/54/6
f 26/61/4 3/62/4 4/63/4 25/64/4
f 5/65/4 24/66/4 23/67/4 6/68/4
f 30/69/4 3/62/4 26/61/4 32/70/4
f 31/71/4 25/64/4 4/63/4 27/72/4
f 23/67/4 28/73/4 27/72/4 6/68/4
f 5/65/4 30/69/4 29/74/4 24/66/4
f 28/73/4 31/71/4 27/72/4
f 29/74/4 32/70/4 31/71/4 28/73/4
f 30/69/4 32/70/4 29/74/4
f 43/75/1 36/76/1 35/77/1 42/78/1
f 34/79/6 37/80/6 39/81/6 44/82/6
f 35/83/4 33/84/4 41/85/4 42/86/4
f 41/87/5 40/88/5 43/89/5 42/90/5
f 33/91/4 1/92/4 38/93/4 41/94/4
f 36/95/1 43/96/1 39/97/1 37/98/1
f 1/99/6 34/100/6 44/101/6 38/102/6
f 44/103/2 40/104/2 41/105/2 38/106/2
f 40/107/3 44/108/3 39/109/3 43/110/3
